# xmcd
# 
# Track frame offsets:
#     165
#     15704
#     28589
#     40651
#     56950
#     69908
#     78949
#     96420
#     113801
#     127963
#     145130
#     161872
#     176860
#     196868
#     214998
#     234863
#     235329
#     246589
#     258723
# 
# Disc length: 3637
# 
# Revision: 1
# Processed by: cddbd v1.5.2PL0 Copyright (c) Steve Scherf et al.
# Submitted via: fre:ac v1.0.17
# 
DISCID=120e3313
DTITLE=Michael Bublé - Christmas
DYEAR=2011
DGENRE=Jazz
TTITLE0=It’s Beginning To Look A Lot Like Christmas
TTITLE1=Santa Claus Is Coming To Town
TTITLE2=Jingle Bells [featuring the Puppini Sisters]
TTITLE3=White Christmas [duet with Shania Twain]
TTITLE4=All I Want For Christmas Is You
TTITLE5=Holly Jolly Christmas
TTITLE6=Santa Baby
TTITLE7=Have Yourself A Merry Little Christmas
TTITLE8=Christmas (Baby Please Come Home)
TTITLE9=Silent Night
TTITLE10=Blue Christmas
TTITLE11=Cold December Night
TTITLE12=I’ll Be Home For Christmas
TTITLE13=Ave Maria
TTITLE14=Mis Deseos/Feliz Navidad" [duet with Thalia]
TTITLE15=Michael's Christmas Greeting
TTITLE16=Winter Wonderland
TTITLE17=Frosty the Snowman
TTITLE18=Silver Bells [featuring Naturally 7]
EXTD=YEAR: 2011
EXTT0=
EXTT1=
EXTT2=
EXTT3=
EXTT4=
EXTT5=
EXTT6=
EXTT7=
EXTT8=
EXTT9=
EXTT10=
EXTT11=
EXTT12=
EXTT13=
EXTT14=
EXTT15=
EXTT16=
EXTT17=
EXTT18=
PLAYORDER=
